<svg id="Camada_1" data-name="Camada 1" xmlns="http://www.w3.org/2000/svg" viewBox="0 0 1080 324.69"><defs><style>.cls-1{fill:#f2f2f2;}</style></defs><path class="cls-1" d="M266.41,181.93c0,14.68-10.54,30.16-31,30.16H197.83V112.67H225c17.64,0,28.86,13,28.86,26.33,0,10.55-7,17.09-9.37,17.09C254,156.09,266.41,166,266.41,181.93Zm-48.66-49.84v19.43h8.08a9.69,9.69,0,0,0,9.38-9.87,9.31,9.31,0,0,0-9-9.56Zm29.17,48.42c0-5.74-3.94-11.47-13.44-11.47H217.75V192.6h15.79C240,192.6,246.92,188.16,246.92,180.51Z"/><path class="cls-1" d="M297.63,132.34v19.43h34.29v19.92H297.63v20.54h40v19.86h-60V112.67h60v19.67Z"/><path class="cls-1" d="M416.19,132.46H391.77v79.63h-20V132.46H347.24V112.67h68.95Z"/><path class="cls-1" d="M517,164.66c0,31.21-21.52,49.4-47.43,49.4-29.29,0-52.36-23.19-52.36-51.56s23.19-51.87,51.62-51.87c12.9.12,26.65,6.05,36.39,15.54l-11.1,16.59c-7.77-7.58-16.65-11.9-25.53-11.9-15.42,0-31,13.08-31,31.64C437.53,179.77,451,194,470.4,194c14.18,0,24.36-7.27,25-19.24H469.72V156.27h46.75A78.93,78.93,0,0,1,517,164.66Z"/><path class="cls-1" d="M545.91,132.34v19.43H580.2v19.92H545.91v20.54h40v19.86h-60V112.67h60v19.67Z"/><path class="cls-1" d="M690.77,112.67h20v99.42h-20Z"/><path class="cls-1" d="M727.16,175.33V112.67h20.11v62.6a18.26,18.26,0,1,0,36.51,0v-62.6h20.1v62.66c0,22.51-17.2,38.92-38.36,38.92S727.16,197.84,727.16,175.33Z"/><path class="cls-1" d="M856.39,213.07V226H839.55V213.69c-13-1.6-22.7-8.14-28.43-18.75l16-11.22c4.38,7,10.73,10.23,19.31,10.23,9.37,0,15.66-3.82,15.66-9.12,0-7.28-11.9-13-22.32-18.2-11.17-5.55-23.44-11.65-23.44-27.51,0-14.06,9.74-24.23,23.25-27.44v-13h16.84v12.39c10.24,1.73,18.38,7.28,22,17.09l-14.74,10.3c-3-5.92-8.7-8.33-14.25-8.33-7.46,0-13,4.32-13,9.44,0,5.92,7.52,7.95,18.93,13.32,16.47,7.77,26.83,16.16,26.83,31.46C882.17,199.44,872,209.93,856.39,213.07Z"/><polygon class="cls-1" points="672.28 113.32 653.41 113.32 653.36 113.32 653.36 176.73 619.46 113.33 619.46 113.32 619.45 113.32 600.58 113.32 599.54 113.32 599.54 212.09 600.58 212.09 619.45 212.09 619.46 212.09 619.46 148.59 653.36 212 653.36 212.09 653.41 212.09 672.28 212.09 673.28 212.09 673.28 113.32 672.28 113.32"/></svg>