<svg id="Camada_1" data-name="Camada 1" xmlns="http://www.w3.org/2000/svg" xmlns:xlink="http://www.w3.org/1999/xlink" viewBox="0 0 550 550"><defs><style>.cls-1{fill:url(#Gradiente_sem_nome_56);}</style><linearGradient id="Gradiente_sem_nome_56" x1="151.56" y1="82.94" x2="393.83" y2="470.57" gradientUnits="userSpaceOnUse"><stop offset="0.12" stop-color="#75c5d8"/><stop offset="1" stop-color="#4e96c2"/></linearGradient></defs><path class="cls-1" d="M378.51,206.83c6.63,0,25.82-18,25.82-47.06,0-36.86-30.92-72.54-79.51-72.54H250.06V190H305V140.74h23.27c12.74,0,24.8,10.88,24.8,26.34,0,16-12.74,27.17-25.82,27.17H244.27c-72,0-131.71,57.13-133.23,129.08q0,1.46,0,2.91c0,75.12,61.08,136.53,138.65,136.53,59.29,0,109.89-36,122.54-99.12H317.73c-4.25,28.65-30.27,45.89-65.78,45.89-51.45,0-87-37.57-87-83.3,0-49.16,41.31-83.77,82.13-83.77.67,0,1.34,0,2,0h99.22c26.16,0,37,15.8,37,31.6,0,21.06-19,33.3-36.87,33.3H250.06v51.67H370.41a48.57,48.57,0,0,0,9.16-.85c42.06-8,59.42-46.44,59.42-80.21C439,234,404.83,206.83,378.51,206.83Z"/></svg>